<?xml version="1.0" standalone="no"?>
<!DOCTYPE svg PUBLIC "-//W3C//DTD SVG 20010904//EN"
 "http://www.w3.org/TR/2001/REC-SVG-20010904/DTD/svg10.dtd">
<svg version="1.0" xmlns="http://www.w3.org/2000/svg"
 width="768.000000pt" height="276.000000pt" viewBox="0 0 768.000000 276.000000"
 preserveAspectRatio="xMidYMid meet">
<metadata>
Created by potrace 1.16, written by Peter Selinger 2001-2019
</metadata>
<g transform="translate(0.000000,276.000000) scale(0.100000,-0.100000)"
fill="#000000" stroke="none">
<path d="M1216 2493 c-1 -1 -18 -4 -36 -7 -203 -28 -438 -146 -592 -298 -124
-123 -197 -231 -254 -380 -59 -151 -75 -236 -75 -393 0 -169 4 -196 57 -354
52 -157 150 -317 265 -430 122 -120 341 -244 487 -276 12 -3 32 -7 45 -10 12
-3 38 -9 57 -13 41 -8 289 -8 340 0 298 50 569 224 734 471 85 128 155 301
172 428 10 72 11 282 1 344 -38 249 -175 492 -377 668 -97 85 -258 169 -400
210 -100 29 -103 27 -98 -60 l3 -56 70 -22 c127 -40 248 -104 320 -169 22 -19
45 -39 50 -44 73 -66 159 -181 207 -277 32 -63 74 -193 87 -266 10 -57 8 -265
-3 -309 -3 -14 -9 -38 -11 -55 -10 -53 -37 -128 -71 -198 -116 -234 -317 -410
-560 -491 -50 -16 -62 -19 -134 -33 -44 -9 -275 -9 -315 -1 -16 4 -40 9 -52
12 -13 3 -32 8 -44 11 -43 9 -136 48 -198 81 -335 183 -531 560 -487 934 10
83 15 107 32 166 70 245 254 464 489 582 80 40 211 80 285 88 l60 6 0 -46 c0
-50 -3 -54 -51 -60 -204 -26 -418 -152 -544 -320 -155 -207 -214 -463 -160
-696 3 -14 8 -34 10 -45 9 -42 58 -152 99 -220 23 -40 79 -109 131 -160 80
-81 103 -97 205 -148 122 -60 204 -85 310 -93 85 -7 75 -7 150 0 124 11 247
52 355 118 189 114 312 276 384 507 l19 61 -559 0 c-307 0 -559 2 -559 4 0 2
44 79 98 172 54 93 116 202 138 241 21 40 42 72 47 70 4 -1 53 -83 110 -182
l103 -180 83 -3 83 -3 -30 53 c-202 355 -342 593 -349 595 -4 2 -17 -14 -29
-35 -46 -83 -114 -202 -166 -292 -154 -266 -328 -570 -328 -575 0 -3 261 -6
580 -7 l580 -3 -37 -64 c-48 -81 -149 -185 -231 -234 -64 -39 -166 -79 -237
-93 -50 -10 -206 -10 -262 0 -127 21 -260 92 -360 190 -122 121 -196 267 -208
411 -1 22 -6 48 -10 58 -4 9 -5 32 -1 50 3 17 8 52 10 77 19 186 137 377 300
490 120 82 241 119 406 123 l55 2 3 193 2 194 -96 -4 c-52 -1 -97 -4 -98 -5z"/>
<path d="M3013 2147 l-112 -52 -49 -180 c-27 -99 -73 -268 -101 -375 -29 -107
-68 -253 -87 -323 -20 -71 -34 -130 -32 -131 1 -1 40 -23 85 -49 l83 -47 265
0 265 0 68 34 c37 18 83 39 103 45 42 13 24 -38 151 436 28 105 71 262 95 350
24 88 47 178 49 201 6 40 5 42 -41 69 -26 15 -63 38 -83 51 -34 24 -37 24
-291 23 l-256 0 -112 -52z m547 -173 c0 -7 -52 -203 -120 -454 -26 -96 -56
-208 -65 -247 l-17 -73 -239 0 c-131 0 -239 4 -239 8 0 5 6 31 14 58 7 27 19
75 26 107 l13 57 124 71 c68 40 126 76 129 80 3 5 -43 9 -101 9 -102 0 -106 1
-100 20 4 11 20 71 35 133 16 61 37 140 47 175 l17 62 238 0 c131 0 238 -3
238 -6z"/>
<path d="M6635 2146 l-110 -53 -38 -134 c-21 -74 -40 -145 -42 -159 -3 -14
-26 -99 -51 -190 -25 -91 -48 -176 -51 -189 -2 -13 -22 -87 -43 -165 -22 -77
-40 -149 -40 -159 0 -10 11 -22 25 -27 14 -5 50 -26 81 -45 l55 -35 361 2 361
3 4 24 c2 13 23 95 48 182 24 86 47 170 49 185 3 16 17 67 31 114 13 47 25 88
25 93 0 4 -103 7 -230 7 -126 0 -230 -4 -230 -9 0 -9 150 -100 188 -114 16 -7
21 -14 17 -28 -4 -10 -8 -31 -11 -46 -3 -16 -14 -59 -25 -98 -11 -38 -23 -78
-25 -87 -5 -17 -25 -18 -246 -18 -188 0 -239 3 -236 13 3 6 17 59 33 117 15
58 47 177 70 265 24 88 56 210 72 270 l30 110 350 3 350 2 25 103 c17 71 22
104 14 109 -6 4 -166 8 -356 7 l-345 0 -110 -53z"/>
<path d="M3991 1943 c-77 -36 -111 -57 -111 -69 0 -9 -21 -91 -46 -182 -25
-90 -48 -174 -50 -186 -2 -12 -21 -85 -43 -162 -37 -131 -91 -339 -91 -350 0
-2 48 -3 108 -2 l107 3 19 75 c10 41 38 146 62 232 24 87 45 165 47 175 1 10
21 84 42 165 l40 148 253 0 c245 0 252 1 252 20 0 25 -1 22 22 95 10 33 18 65
18 72 0 9 -64 13 -259 15 l-259 3 -111 -52z"/>
<path d="M4791 1945 c-93 -41 -113 -54 -117 -75 -6 -28 -79 -302 -150 -565
-65 -239 -69 -212 30 -268 l84 -47 282 2 283 3 28 100 c15 55 28 101 29 103 0
1 -123 2 -274 2 l-275 0 20 73 c11 39 22 80 25 90 5 16 27 17 278 17 l273 0
32 123 c18 67 48 179 67 248 19 70 34 130 34 135 0 8 -86 66 -138 93 -14 8
-89 13 -211 14 l-188 2 -112 -50z m405 -171 c-3 -8 -13 -45 -22 -82 -9 -37
-18 -73 -20 -79 -3 -10 -45 -13 -169 -13 -91 0 -165 1 -165 3 0 2 6 26 14 53
8 27 20 68 26 92 l11 42 165 0 c147 0 165 -2 160 -16z"/>
<path d="M5883 1992 l-282 -2 -15 -53 c-8 -28 -18 -65 -21 -82 -4 -16 -29
-111 -55 -210 -27 -99 -71 -263 -98 -365 -49 -181 -72 -273 -72 -285 0 -3 48
-4 107 -3 l107 3 9 40 c5 22 29 113 54 203 24 89 46 173 48 185 3 12 26 100
52 194 l48 173 163 0 c89 0 162 -2 162 -5 0 -7 -69 -273 -106 -410 -19 -71
-49 -179 -65 -240 -17 -60 -32 -118 -35 -127 -5 -16 5 -18 103 -18 l109 0 33
123 c81 307 137 513 172 641 21 77 38 140 36 141 -15 10 -137 81 -152 89 -13
7 -116 10 -302 8z"/>
<path d="M5162 894 c-40 -17 -61 -45 -81 -110 -20 -67 -20 -120 0 -140 20 -19
79 -20 115 -1 27 14 64 56 64 72 0 14 -56 2 -76 -16 -33 -31 -62 -18 -58 24 7
60 34 117 59 123 28 7 45 -1 45 -22 0 -11 8 -14 27 -12 19 2 27 9 28 26 4 52
-62 82 -123 56z"/>
<path d="M4818 848 c-19 -29 -58 -89 -87 -133 l-52 -80 28 -3 c19 -3 32 2 42
17 10 17 24 21 62 21 42 0 49 -3 49 -20 0 -16 7 -20 30 -20 29 0 30 1 25 43
-4 39 -14 125 -21 172 -1 11 -3 28 -3 38 -2 35 -39 18 -73 -35z"/>
<path d="M5456 786 c-106 -162 -103 -156 -67 -156 20 0 34 7 41 20 8 15 21 20
55 20 35 0 45 -4 50 -20 4 -14 15 -20 35 -20 31 0 31 -5 15 125 -8 57 -11 87
-14 128 0 10 -9 17 -21 17 -15 0 -40 -31 -94 -114z"/>
<path d="M5809 898 c0 -2 -2 -10 -4 -18 -1 -8 -15 -60 -30 -115 -41 -153 -46
-138 40 -133 97 5 123 23 152 109 43 127 25 159 -87 159 -38 0 -70 -1 -71 -2z"/>
<path d="M6162 868 c-9 -28 -21 -78 -24 -98 -1 -3 -10 -32 -20 -65 -10 -33
-18 -63 -18 -67 0 -5 40 -8 90 -8 77 0 91 3 99 19 15 26 5 31 -62 31 -50 0
-58 2 -53 16 3 9 6 20 6 25 0 5 27 9 60 9 l60 0 0 30 c0 29 -1 30 -51 30 -48
0 -51 1 -45 23 3 12 6 25 6 29 0 4 30 8 68 10 61 3 67 5 70 26 3 21 1 22 -87
22 l-89 0 -10 -32z"/>
<path d="M6503 888 c0 -7 -12 -58 -28 -113 -40 -146 -40 -145 -11 -145 21 0
26 8 42 65 18 70 34 71 34 3 0 -33 3 -38 24 -38 19 0 33 13 60 58 l37 57 -7
-40 c-4 -22 -11 -48 -15 -57 -16 -30 -10 -48 15 -48 23 0 29 10 41 65 2 6 14
52 28 103 28 100 26 107 -25 100 -16 -2 -33 -23 -63 -76 l-40 -72 -7 37 c-4
21 -7 55 -7 76 -1 36 -2 37 -39 37 -24 0 -39 -5 -39 -12z"/>
<path d="M6889 893 c-1 -5 0 -12 1 -18 1 -5 4 -19 6 -30 2 -11 7 -31 10 -45 8
-33 8 -86 -1 -132 -6 -36 -5 -38 18 -38 24 0 26 3 42 63 2 4 3 13 4 20 0 7 8
22 16 32 88 115 105 140 105 147 0 5 -12 8 -27 6 -20 -2 -38 -18 -65 -57 -21
-30 -39 -48 -39 -40 -1 8 -3 23 -5 34 -2 11 -4 30 -6 43 -2 17 -9 22 -30 22
-15 0 -29 -3 -29 -7z"/>
</g>
</svg>
